<?xml version="1.0" standalone="no"?>
<!DOCTYPE svg PUBLIC "-//W3C//DTD SVG 20010904//EN"
 "http://www.w3.org/TR/2001/REC-SVG-20010904/DTD/svg10.dtd">
<svg version="1.0" xmlns="http://www.w3.org/2000/svg"
 width="113.000000pt" height="110.000000pt" viewBox="0 0 113.000000 110.000000"
 preserveAspectRatio="xMidYMid meet">

<g transform="translate(0.000000,110.000000) scale(0.100000,-0.100000)"
fill="#000000" stroke="none">
<path d="M472 946 c-23 -8 -55 -22 -70 -33 -21 -14 -46 -18 -113 -18 -71 0
-91 -3 -108 -19 -47 -43 -13 -132 93 -239 53 -53 65 -71 55 -78 -17 -10 -74
-2 -151 21 -60 19 -69 17 -87 -17 -33 -64 4 -132 99 -180 138 -70 161 -96 170
-198 l5 -60 320 0 320 0 3 326 2 327 -47 30 c-189 120 -381 174 -491 138z
m236 -62 c42 -14 118 -50 169 -80 l93 -55 0 -289 0 -290 -279 0 -278 0 -7 41
c-15 92 -65 152 -167 197 -78 35 -109 65 -109 105 0 25 3 29 23 24 183 -41
231 -48 332 -48 120 0 289 17 318 32 25 14 22 23 -28 67 -76 67 -264 149 -476
208 -54 15 -99 32 -99 36 0 22 50 31 109 18 59 -12 61 -12 108 18 63 39 67 40
146 41 49 1 91 -6 145 -25z m-355 -150 c48 -13 127 -40 174 -60 88 -36 212
-104 213 -115 0 -11 -60 -19 -207 -25 l-143 -7 0 27 c0 20 -21 49 -80 112 -79
83 -98 113 -62 99 9 -4 57 -18 105 -31z"/>
<path d="M854 656 c-7 -19 21 -56 43 -56 22 0 12 40 -14 57 -20 14 -23 14 -29
-1z"/>
</g>
</svg>
