<svg width="18" height="19" viewBox="0 0 18 19" fill="none" xmlns="http://www.w3.org/2000/svg">
<g clip-path="url(#clip0_46_904)">
<path d="M1.5 9.50004C1.5 5.76812 1.5 3.90217 2.598 2.74237C3.6975 1.58337 5.4645 1.58337 9 1.58337C12.5355 1.58337 14.3032 1.58337 15.4012 2.74237C16.5 3.90296 16.5 5.76812 16.5 9.50004C16.5 13.232 16.5 15.0979 15.4012 16.2569C14.304 17.4167 12.5355 17.4167 9 17.4167C5.4645 17.4167 3.69675 17.4167 2.598 16.2569C1.5 15.0987 1.5 13.232 1.5 9.50004Z" stroke="#ABABAB" stroke-width="2"/>
<path d="M7.59375 7.02605C7.59378 6.7661 7.65849 6.51071 7.78139 6.28545C7.9043 6.06018 8.08109 5.87294 8.29408 5.74244C8.50708 5.61195 8.7488 5.54279 8.99507 5.54188C9.24134 5.54097 9.48352 5.60834 9.69737 5.73725C9.91122 5.86616 10.0893 6.0521 10.2137 6.27644C10.3381 6.50079 10.4045 6.75569 10.4062 7.01564C10.408 7.27558 10.345 7.53146 10.2237 7.75766C10.1023 7.98386 9.92684 8.17246 9.71475 8.30459C9.3585 8.52705 9 8.86509 9 9.30209V10.2917" stroke="#ABABAB" stroke-width="2" stroke-linecap="round"/>
<path d="M9 13.4583C9.41421 13.4583 9.75 13.1039 9.75 12.6667C9.75 12.2294 9.41421 11.875 9 11.875C8.58579 11.875 8.25 12.2294 8.25 12.6667C8.25 13.1039 8.58579 13.4583 9 13.4583Z" fill="#ABABAB"/>
</g>
<defs>
<clipPath id="clip0_46_904">
<rect width="18" height="19" fill="white"/>
</clipPath>
</defs>
</svg>
