<svg width="17" height="19" viewBox="0 0 17 19" fill="none" xmlns="http://www.w3.org/2000/svg">
<path d="M9.63086 9.39703V8.20161H14.416V9.43503M12.0236 7.15503V8.20161M10.568 9.50945H13.4123L12.0735 10.668V13.3585H11.1031M9.63086 11.303H14.416" stroke="#C2C2C2" stroke-linecap="round" stroke-linejoin="round"/>
<path d="M15.0346 4.93127H8.83916C8.63378 4.93127 8.46729 5.11736 8.46729 5.3469V15.6726C8.46729 15.9022 8.63378 16.0882 8.83916 16.0882H15.0346C15.24 16.0882 15.4065 15.9022 15.4065 15.6726V5.3469C15.4065 5.11736 15.24 4.93127 15.0346 4.93127Z" stroke="#C2C2C2" stroke-linecap="round" stroke-linejoin="round"/>
<path d="M10.727 2.93592C10.6688 2.93575 10.6112 2.94895 10.5577 2.97471L4.96898 5.62877C4.91645 5.65368 4.86883 5.68993 4.82885 5.73544C4.78887 5.78096 4.75732 5.83484 4.736 5.894C4.71468 5.95316 4.70402 6.01644 4.70461 6.08022C4.70521 6.144 4.71706 6.20701 4.73948 6.26567L8.29779 15.6426C8.32264 15.7073 8.35986 15.7652 8.40684 15.8122C8.45383 15.8592 8.50945 15.8941 8.56979 15.9145C8.50385 15.8277 8.46747 15.7176 8.46709 15.6038V5.41621C8.46685 5.35246 8.47791 5.28928 8.49963 5.23034C8.52135 5.17139 8.5533 5.11783 8.59364 5.07275C8.63397 5.02767 8.68189 4.99196 8.73463 4.96769C8.78738 4.94341 8.8439 4.93105 8.90094 4.93131H11.7715L11.1269 3.23239C11.0939 3.14434 11.0383 3.06919 10.9672 3.01642C10.896 2.96365 10.8124 2.93563 10.727 2.93592Z" stroke="#C2C2C2" stroke-linecap="round" stroke-linejoin="round"/>
<path d="M6.32078 2.91174C6.2638 2.91166 6.20737 2.92417 6.15473 2.94856C6.10209 2.97294 6.05429 3.00873 6.01408 3.05385L1.72122 7.85649C1.68082 7.90147 1.64876 7.95492 1.62689 8.01378C1.60501 8.07264 1.59375 8.13575 1.59375 8.19948C1.59375 8.26322 1.60501 8.32633 1.62689 8.38518C1.64876 8.44404 1.68082 8.4975 1.72122 8.54247L8.16068 15.7458C8.20526 15.7954 8.25897 15.8334 8.31806 15.8573C8.37715 15.8813 8.44019 15.8905 8.5028 15.8844C8.41087 15.8337 8.33806 15.7481 8.29739 15.6429L4.73943 6.26445C4.71694 6.20588 4.70505 6.1429 4.70444 6.07917C4.70384 6.01543 4.71453 5.95219 4.73589 5.89309C4.75726 5.834 4.78889 5.78021 4.82894 5.73484C4.869 5.68947 4.9167 5.65341 4.96928 5.62874L7.74985 4.30864L6.62749 3.05345C6.58735 3.00831 6.53962 2.97248 6.48704 2.94802C6.43447 2.92357 6.37773 2.91176 6.32078 2.91174Z" stroke="#C2C2C2" stroke-linecap="round" stroke-linejoin="round"/>
</svg>
